<svg width="1014" height="503" viewBox="0 0 1014 503" fill="none" xmlns="http://www.w3.org/2000/svg">
<g clip-path="url(#clip0_1_2)">
<path d="M497.975 0C219.302 0 -6.84933 224.834 -9 503H1004.95C1002.8 224.834 776.648 0 497.975 0Z" fill="url(#paint0_linear_1_2)"/>
<path d="M480.788 57.5439C483.549 57.5439 485.788 55.3054 485.788 52.5439C485.788 49.7825 483.549 47.5439 480.788 47.5439C478.026 47.5439 475.788 49.7825 475.788 52.5439C475.788 55.3054 478.026 57.5439 480.788 57.5439Z" fill="#F2F2F2"/>
<path d="M323.788 219.544C324.892 219.544 325.788 218.649 325.788 217.544C325.788 216.439 324.892 215.544 323.788 215.544C322.683 215.544 321.788 216.439 321.788 217.544C321.788 218.649 322.683 219.544 323.788 219.544Z" fill="#F2F2F2"/>
<path d="M618.788 313.544C619.892 313.544 620.788 312.649 620.788 311.544C620.788 310.439 619.892 309.544 618.788 309.544C617.683 309.544 616.788 310.439 616.788 311.544C616.788 312.649 617.683 313.544 618.788 313.544Z" fill="#F2F2F2"/>
<path d="M97.7876 288.544C98.8921 288.544 99.7876 287.649 99.7876 286.544C99.7876 285.439 98.8921 284.544 97.7876 284.544C96.683 284.544 95.7876 285.439 95.7876 286.544C95.7876 287.649 96.683 288.544 97.7876 288.544Z" fill="#F2F2F2"/>
<path d="M877.788 217.544C878.892 217.544 879.788 216.649 879.788 215.544C879.788 214.439 878.892 213.544 877.788 213.544C876.683 213.544 875.788 214.439 875.788 215.544C875.788 216.649 876.683 217.544 877.788 217.544Z" fill="#F2F2F2"/>
<path d="M235.788 238.544C236.892 238.544 237.788 237.649 237.788 236.544C237.788 235.439 236.892 234.544 235.788 234.544C234.683 234.544 233.788 235.439 233.788 236.544C233.788 237.649 234.683 238.544 235.788 238.544Z" fill="#F2F2F2"/>
<path d="M563.788 198.544C564.892 198.544 565.788 197.649 565.788 196.544C565.788 195.439 564.892 194.544 563.788 194.544C562.683 194.544 561.788 195.439 561.788 196.544C561.788 197.649 562.683 198.544 563.788 198.544Z" fill="#F2F2F2"/>
<path d="M629.788 54.5439C630.892 54.5439 631.788 53.6485 631.788 52.5439C631.788 51.4394 630.892 50.5439 629.788 50.5439C628.683 50.5439 627.788 51.4394 627.788 52.5439C627.788 53.6485 628.683 54.5439 629.788 54.5439Z" fill="#F2F2F2"/>
<path d="M213.788 288.544H211.788V289.544H213.788V288.544Z" fill="#F2F2F2"/>
<path d="M272.788 135.544H270.788V136.544H272.788V135.544Z" fill="#F2F2F2"/>
<path d="M416.788 249.544H414.788V250.544H416.788V249.544Z" fill="#F2F2F2"/>
<path d="M798.788 293.544H796.788V294.544H798.788V293.544Z" fill="#F2F2F2"/>
<path d="M679.788 140.544H677.788V141.544H679.788V140.544Z" fill="#F2F2F2"/>
<path d="M228.608 363.68H225.089V502.683H228.608V363.68Z" fill="#3F3D56"/>
<path d="M261.085 339.394C261.309 388 227.113 427.562 227.113 427.562C227.113 427.562 192.552 388.317 192.328 339.711C192.104 291.105 226.301 251.544 226.301 251.544C226.301 251.544 260.861 290.788 261.085 339.394Z" fill="#3F3D56"/>
<path d="M185.172 322.472H180.61V502.683H185.172V322.472Z" fill="#3F3D56"/>
<path d="M227.277 303.438C227.567 366.453 183.233 417.743 183.233 417.743C183.233 417.743 138.427 366.864 138.137 303.849C137.846 240.833 182.181 189.544 182.181 189.544C182.181 189.544 226.987 240.423 227.277 303.438Z" fill="#3F3D56"/>
<path d="M715.608 363.68H712.089V502.683H715.608V363.68Z" fill="#6C63FF"/>
<path d="M748.085 381.394C748.309 430 714.113 469.562 714.113 469.562C714.113 469.562 679.552 430.317 679.328 381.711C679.104 333.105 713.301 293.544 713.301 293.544C713.301 293.544 747.861 332.788 748.085 381.394Z" fill="#3F3D56"/>
<path d="M144.608 363.68H141.089V502.683H144.608V363.68Z" fill="#3F3D56"/>
<path d="M177.085 339.394C177.309 388 143.113 427.562 143.113 427.562C143.113 427.562 108.552 388.317 108.328 339.711C108.104 291.105 142.301 251.544 142.301 251.544C142.301 251.544 176.861 290.788 177.085 339.394Z" fill="#3F3D56"/>
<path d="M454.608 363.68H451.089V502.683H454.608V363.68Z" fill="#3F3D56"/>
<path d="M487.085 339.394C487.309 388 453.113 427.562 453.113 427.562C453.113 427.562 418.552 388.317 418.328 339.711C418.104 291.105 452.301 251.544 452.301 251.544C452.301 251.544 486.861 290.788 487.085 339.394Z" fill="#3F3D56"/>
<path d="M411.172 322.472H406.61V502.683H411.172V322.472Z" fill="#3F3D56"/>
<path d="M453.277 303.438C453.567 366.453 409.233 417.743 409.233 417.743C409.233 417.743 364.427 366.864 364.137 303.849C363.846 240.833 408.181 189.544 408.181 189.544C408.181 189.544 452.987 240.423 453.277 303.438Z" fill="#3F3D56"/>
<path d="M370.608 363.68H367.089V502.683H370.608V363.68Z" fill="#3F3D56"/>
<path d="M403.085 339.394C403.309 388 369.113 427.562 369.113 427.562C369.113 427.562 334.552 388.317 334.328 339.711C334.104 291.105 368.301 251.544 368.301 251.544C368.301 251.544 402.861 290.788 403.085 339.394Z" fill="#374355"/>
<path d="M738.362 428.413L679.558 374.345C679.4 376.775 679.317 379.23 679.328 381.711C679.552 430.317 714.113 469.562 714.113 469.562C724.175 457.112 732.346 443.247 738.362 428.413V428.413Z" fill="#6C63FF"/>
<path d="M300.644 490.284C302.658 497.732 309.559 502.344 309.559 502.344C309.559 502.344 313.194 494.882 311.179 487.434C309.164 479.986 302.263 475.374 302.263 475.374C302.263 475.374 298.629 482.836 300.644 490.284Z" fill="#3F3D56"/>
<path d="M303.604 488.683C309.133 494.065 309.808 502.338 309.808 502.338C309.808 502.338 301.52 501.886 295.991 496.504C290.463 491.122 289.788 482.849 289.788 482.849C289.788 482.849 298.076 483.302 303.604 488.683Z" fill="#3F3D56"/>
<path d="M584.644 490.284C586.659 497.732 593.56 502.344 593.56 502.344C593.56 502.344 597.194 494.882 595.179 487.434C593.164 479.986 586.263 475.374 586.263 475.374C586.263 475.374 582.629 482.836 584.644 490.284Z" fill="#6C63FF"/>
<path d="M587.604 488.683C593.133 494.065 593.808 502.338 593.808 502.338C593.808 502.338 585.52 501.886 579.991 496.504C574.463 491.122 573.788 482.849 573.788 482.849C573.788 482.849 582.076 483.302 587.604 488.683Z" fill="#6C63FF"/>
<path d="M76.6437 490.284C78.6585 497.732 85.5595 502.344 85.5595 502.344C85.5595 502.344 89.1939 494.882 87.1791 487.434C85.1644 479.986 78.2634 475.374 78.2634 475.374C78.2634 475.374 74.629 482.836 76.6437 490.284Z" fill="#3F3D56"/>
<path d="M79.6043 488.683C85.1328 494.065 85.808 502.338 85.808 502.338C85.808 502.338 77.5198 501.886 71.9913 496.504C66.4628 491.122 65.7876 482.849 65.7876 482.849C65.7876 482.849 74.0758 483.302 79.6043 488.683Z" fill="#3F3D56"/>
<path d="M387.333 220.707L483.843 366.369C485.999 357.54 487.087 348.483 487.085 339.394C486.976 315.692 478.702 294.219 470.252 278.434L465.788 279.544L469.987 277.942C465.011 268.56 459.085 259.715 452.301 251.544C452.301 251.544 449.839 254.394 446.242 259.499C433.562 218.37 408.181 189.544 408.181 189.544C400.259 199.247 393.278 209.682 387.333 220.707V220.707Z" fill="#6C63FF"/>
<path opacity="0.1" d="M942.617 496.789C943.381 496.789 944.113 496.486 944.652 495.946C945.192 495.406 945.495 494.674 945.495 493.911C945.495 493.148 945.192 492.416 944.652 491.877C944.113 491.337 943.381 491.034 942.617 491.034H918.958C919.721 492.56 919.846 494.327 919.307 495.946C918.767 497.565 917.606 498.903 916.08 499.666C916.08 500.43 916.383 501.161 916.923 501.701C917.463 502.241 918.194 502.544 918.958 502.544H942.617C943.381 502.544 944.113 502.241 944.652 501.701C945.192 501.161 945.495 500.43 945.495 499.666C945.495 498.903 945.192 498.171 944.652 497.632C944.113 497.092 943.381 496.789 942.617 496.789V496.789Z" fill="#F2F2F2"/>
<path d="M885.641 446.819C885.807 446.79 885.97 446.744 886.134 446.702C885.608 446.637 885.073 446.689 884.569 446.854C884.926 446.886 885.286 446.874 885.641 446.819V446.819Z" fill="#FF6584"/>
<path d="M941.339 486.238C941.339 496.833 936.615 493.911 930.788 493.911C924.96 493.911 920.237 496.833 920.237 486.238C920.237 475.643 930.788 455.544 930.788 455.544C930.788 455.544 941.339 475.643 941.339 486.238Z" fill="#FF6584"/>
<path d="M944.013 457.928C944.013 457.928 946.205 455.649 946.161 453.413Z" fill="#FF6584"/>
<path d="M921.549 438.936C921.549 438.936 920.634 435.909 918.663 434.853Z" fill="#FF6584"/>
<path d="M899.549 397.936C899.549 397.936 898.634 394.909 896.663 393.853Z" fill="#FF6584"/>
<path d="M925.549 452.936C925.549 452.936 924.634 449.909 922.663 448.853Z" fill="#FF6584"/>
<path d="M922.549 403.936C922.549 403.936 921.634 400.909 919.663 399.853Z" fill="#FF6584"/>
<path d="M916.549 421.936C916.549 421.936 915.634 418.909 913.663 417.853Z" fill="#FF6584"/>
<path d="M942.013 488.928C942.013 488.928 944.205 486.649 944.161 484.413Z" fill="#FF6584"/>
<path d="M946.013 471.928C946.013 471.928 948.205 469.649 948.161 467.413Z" fill="#FF6584"/>
<path opacity="0.1" d="M574.728 277.957L574.727 277.956L552.908 257.894L552.712 257.943L543.975 250L543.553 249.877L544.008 249.704L451.089 164.271L361.353 81.762L315.628 106.016L311.888 106.844L366.685 189.544L574.068 502.544H818.988L574.728 277.957Z" fill="#F2F2F2"/>
<path d="M334.788 119.544C349.699 119.544 361.788 107.456 361.788 92.5439C361.788 77.6323 349.699 65.5439 334.788 65.5439C319.876 65.5439 307.788 77.6323 307.788 92.5439C307.788 107.456 319.876 119.544 334.788 119.544Z" fill="#F2F2F2"/>
<g clip-path="url(#clip1_1_2)">
<path d="M697.452 390.741C700.395 390.741 702.78 388.046 702.78 384.722C702.78 381.398 700.395 378.703 697.452 378.703C694.51 378.703 692.124 381.398 692.124 384.722C692.124 388.046 694.51 390.741 697.452 390.741Z" fill="#F2F2F2"/>
<path d="M606 466.51C607.733 468.83 609.608 471.011 611.611 473.036L757.389 473.261C759.392 471.236 761.267 469.056 763 466.735L606 466.51Z" fill="#3F3D56"/>
<path d="M704.857 445.003V464.322C704.857 464.568 704.944 464.804 705.098 464.979C705.252 465.153 705.461 465.25 705.679 465.251H731.021C731.239 465.25 731.448 465.153 731.602 464.979C731.756 464.804 731.843 464.568 731.843 464.322V445.003C731.842 444.757 731.755 444.521 731.601 444.347C731.447 444.173 731.239 444.075 731.021 444.075H705.679C705.461 444.075 705.252 444.173 705.098 444.347C704.944 444.521 704.857 444.757 704.857 445.003V445.003Z" fill="#3F3D56"/>
<path d="M705.451 445.243V464.084C705.451 464.215 705.498 464.341 705.58 464.434C705.663 464.527 705.774 464.58 705.891 464.58H730.81C730.926 464.58 731.038 464.527 731.12 464.434C731.203 464.341 731.249 464.215 731.249 464.084V445.243C731.249 445.111 731.203 444.985 731.121 444.892C731.038 444.798 730.926 444.746 730.81 444.746H705.891C705.774 444.746 705.662 444.798 705.58 444.892C705.498 444.985 705.451 445.111 705.451 445.243V445.243Z" fill="#6C63FF"/>
<path d="M704.327 468.09C704.373 468.156 704.432 468.209 704.499 468.245C704.567 468.281 704.64 468.3 704.715 468.3H731.85C731.924 468.3 731.998 468.281 732.064 468.245C732.131 468.208 732.19 468.156 732.237 468.091C732.284 468.026 732.317 467.95 732.335 467.868C732.352 467.787 732.353 467.702 732.338 467.62L731.917 465.359C731.899 465.267 731.862 465.181 731.808 465.11C731.753 465.038 731.684 464.983 731.606 464.95C731.55 464.925 731.489 464.912 731.429 464.912H705.134C705.073 464.912 705.013 464.925 704.957 464.95C704.879 464.983 704.81 465.038 704.755 465.11C704.701 465.181 704.663 465.267 704.646 465.359L704.225 467.62C704.21 467.702 704.211 467.787 704.229 467.868C704.246 467.949 704.28 468.025 704.327 468.09V468.09Z" fill="#2F2E41"/>
<path d="M730.498 465.885H731.139C731.192 465.885 731.236 465.836 731.236 465.775V465.429C731.236 465.368 731.192 465.319 731.139 465.319H730.498C730.444 465.319 730.4 465.368 730.4 465.429V465.775C730.4 465.836 730.444 465.885 730.498 465.885Z" fill="#3F3D56"/>
<path d="M728.826 465.885H729.467C729.521 465.885 729.565 465.836 729.565 465.775V465.429C729.565 465.368 729.521 465.319 729.467 465.319H728.826C728.772 465.319 728.729 465.368 728.729 465.429V465.775C728.729 465.836 728.772 465.885 728.826 465.885Z" fill="#3F3D56"/>
<path d="M727.155 465.885H727.796C727.849 465.885 727.893 465.836 727.893 465.775V465.429C727.893 465.368 727.849 465.319 727.796 465.319H727.155C727.101 465.319 727.057 465.368 727.057 465.429V465.775C727.057 465.836 727.101 465.885 727.155 465.885Z" fill="#3F3D56"/>
<path d="M725.483 465.885H726.124C726.178 465.885 726.222 465.836 726.222 465.775V465.429C726.222 465.368 726.178 465.319 726.124 465.319H725.483C725.429 465.319 725.386 465.368 725.386 465.429V465.775C725.386 465.836 725.429 465.885 725.483 465.885Z" fill="#3F3D56"/>
<path d="M723.812 465.885H724.453C724.506 465.885 724.55 465.836 724.55 465.775V465.429C724.55 465.368 724.506 465.319 724.453 465.319H723.812C723.758 465.319 723.714 465.368 723.714 465.429V465.775C723.714 465.836 723.758 465.885 723.812 465.885Z" fill="#3F3D56"/>
<path d="M722.14 465.885H722.781C722.835 465.885 722.879 465.836 722.879 465.775V465.429C722.879 465.368 722.835 465.319 722.781 465.319H722.14C722.086 465.319 722.043 465.368 722.043 465.429V465.775C722.043 465.836 722.086 465.885 722.14 465.885Z" fill="#3F3D56"/>
<path d="M720.469 465.885H721.11C721.163 465.885 721.207 465.836 721.207 465.775V465.429C721.207 465.368 721.163 465.319 721.11 465.319H720.469C720.415 465.319 720.371 465.368 720.371 465.429V465.775C720.371 465.836 720.415 465.885 720.469 465.885Z" fill="#3F3D56"/>
<path d="M718.797 465.885H719.438C719.492 465.885 719.535 465.836 719.535 465.775V465.429C719.535 465.368 719.492 465.319 719.438 465.319H718.797C718.743 465.319 718.7 465.368 718.7 465.429V465.775C718.7 465.836 718.743 465.885 718.797 465.885Z" fill="#3F3D56"/>
<path d="M717.126 465.885H717.767C717.82 465.885 717.864 465.836 717.864 465.775V465.429C717.864 465.368 717.82 465.319 717.767 465.319H717.126C717.072 465.319 717.028 465.368 717.028 465.429V465.775C717.028 465.836 717.072 465.885 717.126 465.885Z" fill="#3F3D56"/>
<path d="M715.454 465.885H716.095C716.149 465.885 716.192 465.836 716.192 465.775V465.429C716.192 465.368 716.149 465.319 716.095 465.319H715.454C715.4 465.319 715.357 465.368 715.357 465.429V465.775C715.357 465.836 715.4 465.885 715.454 465.885Z" fill="#3F3D56"/>
<path d="M713.783 465.885H714.423C714.477 465.885 714.521 465.836 714.521 465.775V465.429C714.521 465.368 714.477 465.319 714.423 465.319H713.783C713.729 465.319 713.685 465.368 713.685 465.429V465.775C713.685 465.836 713.729 465.885 713.783 465.885Z" fill="#3F3D56"/>
<path d="M712.111 465.885H712.752C712.806 465.885 712.849 465.836 712.849 465.775V465.429C712.849 465.368 712.806 465.319 712.752 465.319H712.111C712.057 465.319 712.014 465.368 712.014 465.429V465.775C712.014 465.836 712.057 465.885 712.111 465.885Z" fill="#3F3D56"/>
<path d="M710.44 465.885H711.08C711.134 465.885 711.178 465.836 711.178 465.775V465.429C711.178 465.368 711.134 465.319 711.08 465.319H710.44C710.386 465.319 710.342 465.368 710.342 465.429V465.775C710.342 465.836 710.386 465.885 710.44 465.885Z" fill="#3F3D56"/>
<path d="M708.768 465.885H709.409C709.463 465.885 709.506 465.836 709.506 465.775V465.429C709.506 465.368 709.463 465.319 709.409 465.319H708.768C708.714 465.319 708.671 465.368 708.671 465.429V465.775C708.671 465.836 708.714 465.885 708.768 465.885Z" fill="#3F3D56"/>
<path d="M707.096 465.885H707.737C707.791 465.885 707.835 465.836 707.835 465.775V465.429C707.835 465.368 707.791 465.319 707.737 465.319H707.096C707.043 465.319 706.999 465.368 706.999 465.429V465.775C706.999 465.836 707.043 465.885 707.096 465.885Z" fill="#3F3D56"/>
<path d="M705.425 465.885H706.066C706.12 465.885 706.163 465.836 706.163 465.775V465.429C706.163 465.368 706.12 465.319 706.066 465.319H705.425C705.371 465.319 705.328 465.368 705.328 465.429V465.775C705.328 465.836 705.371 465.885 705.425 465.885Z" fill="#3F3D56"/>
<path d="M730.518 466.83H731.158C731.212 466.83 731.256 466.78 731.256 466.72V466.373C731.256 466.312 731.212 466.263 731.158 466.263H730.518C730.464 466.263 730.42 466.312 730.42 466.373V466.72C730.42 466.78 730.464 466.83 730.518 466.83Z" fill="#3F3D56"/>
<path d="M728.846 466.83H729.487C729.541 466.83 729.584 466.78 729.584 466.72V466.373C729.584 466.312 729.541 466.263 729.487 466.263H728.846C728.792 466.263 728.749 466.312 728.749 466.373V466.72C728.749 466.78 728.792 466.83 728.846 466.83Z" fill="#3F3D56"/>
<path d="M727.174 466.83H727.815C727.869 466.83 727.913 466.78 727.913 466.72V466.373C727.913 466.312 727.869 466.263 727.815 466.263H727.174C727.121 466.263 727.077 466.312 727.077 466.373V466.72C727.077 466.78 727.121 466.83 727.174 466.83Z" fill="#3F3D56"/>
<path d="M725.503 466.83H726.144C726.198 466.83 726.241 466.78 726.241 466.72V466.373C726.241 466.312 726.198 466.263 726.144 466.263H725.503C725.449 466.263 725.406 466.312 725.406 466.373V466.72C725.406 466.78 725.449 466.83 725.503 466.83Z" fill="#3F3D56"/>
<path d="M723.831 466.83H724.472C724.526 466.83 724.57 466.78 724.57 466.72V466.373C724.57 466.312 724.526 466.263 724.472 466.263H723.831C723.778 466.263 723.734 466.312 723.734 466.373V466.72C723.734 466.78 723.778 466.83 723.831 466.83Z" fill="#3F3D56"/>
<path d="M722.16 466.83H722.801C722.855 466.83 722.898 466.78 722.898 466.72V466.373C722.898 466.312 722.855 466.263 722.801 466.263H722.16C722.106 466.263 722.062 466.312 722.062 466.373V466.72C722.062 466.78 722.106 466.83 722.16 466.83Z" fill="#3F3D56"/>
<path d="M720.488 466.83H721.129C721.183 466.83 721.227 466.78 721.227 466.72V466.373C721.227 466.312 721.183 466.263 721.129 466.263H720.488C720.435 466.263 720.391 466.312 720.391 466.373V466.72C720.391 466.78 720.435 466.83 720.488 466.83Z" fill="#3F3D56"/>
<path d="M718.817 466.83H719.458C719.512 466.83 719.555 466.78 719.555 466.72V466.373C719.555 466.312 719.512 466.263 719.458 466.263H718.817C718.763 466.263 718.719 466.312 718.719 466.373V466.72C718.719 466.78 718.763 466.83 718.817 466.83Z" fill="#3F3D56"/>
<path d="M717.145 466.83H717.786C717.84 466.83 717.884 466.78 717.884 466.72V466.373C717.884 466.312 717.84 466.263 717.786 466.263H717.145C717.092 466.263 717.048 466.312 717.048 466.373V466.72C717.048 466.78 717.092 466.83 717.145 466.83Z" fill="#3F3D56"/>
<path d="M715.474 466.83H716.115C716.169 466.83 716.212 466.78 716.212 466.72V466.373C716.212 466.312 716.169 466.263 716.115 466.263H715.474C715.42 466.263 715.376 466.312 715.376 466.373V466.72C715.376 466.78 715.42 466.83 715.474 466.83Z" fill="#3F3D56"/>
<path d="M713.802 466.83H714.443C714.497 466.83 714.541 466.78 714.541 466.72V466.373C714.541 466.312 714.497 466.263 714.443 466.263H713.802C713.748 466.263 713.705 466.312 713.705 466.373V466.72C713.705 466.78 713.748 466.83 713.802 466.83Z" fill="#3F3D56"/>
<path d="M712.131 466.83H712.772C712.826 466.83 712.869 466.78 712.869 466.72V466.373C712.869 466.312 712.826 466.263 712.772 466.263H712.131C712.077 466.263 712.033 466.312 712.033 466.373V466.72C712.033 466.78 712.077 466.83 712.131 466.83Z" fill="#3F3D56"/>
<path d="M710.459 466.83H711.1C711.154 466.83 711.198 466.78 711.198 466.72V466.373C711.198 466.312 711.154 466.263 711.1 466.263H710.459C710.405 466.263 710.362 466.312 710.362 466.373V466.72C710.362 466.78 710.405 466.83 710.459 466.83Z" fill="#3F3D56"/>
<path d="M708.788 466.83H709.429C709.482 466.83 709.526 466.78 709.526 466.72V466.373C709.526 466.312 709.482 466.263 709.429 466.263H708.788C708.734 466.263 708.69 466.312 708.69 466.373V466.72C708.69 466.78 708.734 466.83 708.788 466.83Z" fill="#3F3D56"/>
<path d="M707.116 466.83H707.757C707.811 466.83 707.855 466.78 707.855 466.72V466.373C707.855 466.312 707.811 466.263 707.757 466.263H707.116C707.062 466.263 707.019 466.312 707.019 466.373V466.72C707.019 466.78 707.062 466.83 707.116 466.83Z" fill="#3F3D56"/>
<path d="M705.445 466.83H706.086C706.139 466.83 706.183 466.78 706.183 466.72V466.373C706.183 466.312 706.139 466.263 706.086 466.263H705.445C705.391 466.263 705.347 466.312 705.347 466.373V466.72C705.347 466.78 705.391 466.83 705.445 466.83Z" fill="#3F3D56"/>
<path d="M716.644 467.963H723.135C723.189 467.963 723.233 467.913 723.233 467.853V467.506C723.233 467.445 723.189 467.396 723.135 467.396H716.644C716.59 467.396 716.546 467.445 716.546 467.506V467.853C716.546 467.913 716.59 467.963 716.644 467.963Z" fill="#3F3D56"/>
<path d="M709.767 448.868H709.199C709.027 448.868 708.888 449.025 708.888 449.219C708.888 449.414 709.027 449.571 709.199 449.571H709.767C709.939 449.571 710.078 449.414 710.078 449.219C710.078 449.025 709.939 448.868 709.767 448.868Z" fill="white"/>
<path d="M716.256 448.868H715.689C715.517 448.868 715.377 449.025 715.377 449.219C715.377 449.414 715.517 449.571 715.689 449.571H716.256C716.428 449.571 716.568 449.414 716.568 449.219C716.568 449.025 716.428 448.868 716.256 448.868Z" fill="white"/>
<path d="M718.095 448.868H717.527C717.355 448.868 717.216 449.025 717.216 449.219C717.216 449.414 717.355 449.571 717.527 449.571H718.095C718.267 449.571 718.406 449.414 718.406 449.219C718.406 449.025 718.267 448.868 718.095 448.868Z" fill="white"/>
<path d="M714.491 448.809H710.964C710.792 448.809 710.653 448.966 710.653 449.161C710.653 449.355 710.792 449.513 710.964 449.513H714.491C714.663 449.513 714.802 449.355 714.802 449.161C714.802 448.966 714.663 448.809 714.491 448.809Z" fill="white"/>
<path d="M723.144 448.809H719.617C719.445 448.809 719.306 448.966 719.306 449.161C719.306 449.355 719.445 449.513 719.617 449.513H723.144C723.316 449.513 723.455 449.355 723.455 449.161C723.455 448.966 723.316 448.809 723.144 448.809Z" fill="white"/>
<path d="M711.497 450.456H710.93C710.758 450.456 710.618 450.614 710.618 450.808C710.618 451.002 710.758 451.16 710.93 451.16H711.497C711.669 451.16 711.809 451.002 711.809 450.808C711.809 450.614 711.669 450.456 711.497 450.456Z" fill="white"/>
<path d="M717.987 450.456H717.419C717.247 450.456 717.108 450.614 717.108 450.808C717.108 451.002 717.247 451.16 717.419 451.16H717.987C718.159 451.16 718.298 451.002 718.298 450.808C718.298 450.614 718.159 450.456 717.987 450.456Z" fill="white"/>
<path d="M719.825 450.456H719.258C719.086 450.456 718.946 450.614 718.946 450.808C718.946 451.002 719.086 451.16 719.258 451.16H719.825C719.997 451.16 720.137 451.002 720.137 450.808C720.137 450.614 719.997 450.456 719.825 450.456Z" fill="white"/>
<path d="M716.222 450.397H712.695C712.523 450.397 712.383 450.555 712.383 450.749C712.383 450.944 712.523 451.101 712.695 451.101H716.222C716.394 451.101 716.533 450.944 716.533 450.749C716.533 450.555 716.394 450.397 716.222 450.397Z" fill="white"/>
<path d="M724.874 450.397H721.348C721.176 450.397 721.036 450.555 721.036 450.749C721.036 450.944 721.176 451.101 721.348 451.101H724.874C725.046 451.101 725.186 450.944 725.186 450.749C725.186 450.555 725.046 450.397 724.874 450.397Z" fill="white"/>
<path d="M713.228 452.045H712.66C712.488 452.045 712.349 452.202 712.349 452.396C712.349 452.591 712.488 452.748 712.66 452.748H713.228C713.4 452.748 713.539 452.591 713.539 452.396C713.539 452.202 713.4 452.045 713.228 452.045Z" fill="white"/>
<path d="M719.717 452.045H719.15C718.978 452.045 718.838 452.202 718.838 452.396C718.838 452.591 718.978 452.748 719.15 452.748H719.717C719.889 452.748 720.029 452.591 720.029 452.396C720.029 452.202 719.889 452.045 719.717 452.045Z" fill="white"/>
<path d="M721.556 452.045H720.989C720.816 452.045 720.677 452.202 720.677 452.396C720.677 452.591 720.816 452.748 720.989 452.748H721.556C721.728 452.748 721.867 452.591 721.867 452.396C721.867 452.202 721.728 452.045 721.556 452.045Z" fill="white"/>
<path d="M717.952 451.986H714.425C714.253 451.986 714.114 452.143 714.114 452.338C714.114 452.532 714.253 452.69 714.425 452.69H717.952C718.124 452.69 718.264 452.532 718.264 452.338C718.264 452.143 718.124 451.986 717.952 451.986Z" fill="white"/>
<path d="M726.605 451.986H723.078C722.906 451.986 722.767 452.143 722.767 452.338C722.767 452.532 722.906 452.69 723.078 452.69H726.605C726.777 452.69 726.916 452.532 726.916 452.338C726.916 452.143 726.777 451.986 726.605 451.986Z" fill="white"/>
<path d="M714.958 453.633H714.391C714.219 453.633 714.079 453.791 714.079 453.985C714.079 454.179 714.219 454.337 714.391 454.337H714.958C715.13 454.337 715.27 454.179 715.27 453.985C715.27 453.791 715.13 453.633 714.958 453.633Z" fill="white"/>
<path d="M721.448 453.633H720.88C720.708 453.633 720.569 453.791 720.569 453.985C720.569 454.179 720.708 454.337 720.88 454.337H721.448C721.62 454.337 721.759 454.179 721.759 453.985C721.759 453.791 721.62 453.633 721.448 453.633Z" fill="white"/>
<path d="M723.287 453.633H722.719C722.547 453.633 722.408 453.791 722.408 453.985C722.408 454.179 722.547 454.337 722.719 454.337H723.287C723.459 454.337 723.598 454.179 723.598 453.985C723.598 453.791 723.459 453.633 723.287 453.633Z" fill="white"/>
<path d="M719.683 453.574H716.156C715.984 453.574 715.845 453.732 715.845 453.926C715.845 454.121 715.984 454.278 716.156 454.278H719.683C719.855 454.278 719.994 454.121 719.994 453.926C719.994 453.732 719.855 453.574 719.683 453.574Z" fill="white"/>
<path d="M716.256 459.949H715.689C715.517 459.949 715.377 460.107 715.377 460.301C715.377 460.496 715.517 460.653 715.689 460.653H716.256C716.428 460.653 716.568 460.496 716.568 460.301C716.568 460.107 716.428 459.949 716.256 459.949Z" fill="white"/>
<path d="M718.095 459.949H717.527C717.355 459.949 717.216 460.107 717.216 460.301C717.216 460.496 717.355 460.653 717.527 460.653H718.095C718.267 460.653 718.406 460.496 718.406 460.301C718.406 460.107 718.267 459.949 718.095 459.949Z" fill="white"/>
<path d="M723.144 460.008H719.617C719.445 460.008 719.306 460.166 719.306 460.36C719.306 460.554 719.445 460.712 719.617 460.712H723.144C723.316 460.712 723.455 460.554 723.455 460.36C723.455 460.166 723.316 460.008 723.144 460.008Z" fill="white"/>
<path d="M709.767 459.949H709.199C709.027 459.949 708.888 460.107 708.888 460.301C708.888 460.496 709.027 460.653 709.199 460.653H709.767C709.939 460.653 710.078 460.496 710.078 460.301C710.078 460.107 709.939 459.949 709.767 459.949Z" fill="white"/>
<path d="M714.491 460.008H710.964C710.792 460.008 710.653 460.166 710.653 460.36C710.653 460.554 710.792 460.712 710.964 460.712H714.491C714.663 460.712 714.802 460.554 714.802 460.36C714.802 460.166 714.663 460.008 714.491 460.008Z" fill="white"/>
<path d="M711.497 458.361H710.93C710.758 458.361 710.618 458.519 710.618 458.713C710.618 458.907 710.758 459.065 710.93 459.065H711.497C711.669 459.065 711.809 458.907 711.809 458.713C711.809 458.519 711.669 458.361 711.497 458.361Z" fill="white"/>
<path d="M717.987 458.361H717.419C717.247 458.361 717.108 458.519 717.108 458.713C717.108 458.907 717.247 459.065 717.419 459.065H717.987C718.159 459.065 718.298 458.907 718.298 458.713C718.298 458.519 718.159 458.361 717.987 458.361Z" fill="white"/>
<path d="M719.825 458.361H719.258C719.086 458.361 718.946 458.519 718.946 458.713C718.946 458.907 719.086 459.065 719.258 459.065H719.825C719.997 459.065 720.137 458.907 720.137 458.713C720.137 458.519 719.997 458.361 719.825 458.361Z" fill="white"/>
<path d="M716.222 458.42H712.695C712.523 458.42 712.383 458.577 712.383 458.772C712.383 458.966 712.523 459.123 712.695 459.123H716.222C716.394 459.123 716.533 458.966 716.533 458.772C716.533 458.577 716.394 458.42 716.222 458.42Z" fill="white"/>
<path d="M713.228 456.772H712.66C712.488 456.772 712.349 456.93 712.349 457.124C712.349 457.319 712.488 457.476 712.66 457.476H713.228C713.4 457.476 713.539 457.319 713.539 457.124C713.539 456.93 713.4 456.772 713.228 456.772Z" fill="white"/>
<path d="M719.717 456.772H719.15C718.978 456.772 718.838 456.93 718.838 457.124C718.838 457.319 718.978 457.476 719.15 457.476H719.717C719.889 457.476 720.029 457.319 720.029 457.124C720.029 456.93 719.889 456.772 719.717 456.772Z" fill="white"/>
<path d="M721.556 456.772H720.989C720.816 456.772 720.677 456.93 720.677 457.124C720.677 457.319 720.816 457.476 720.989 457.476H721.556C721.728 457.476 721.867 457.319 721.867 457.124C721.867 456.93 721.728 456.772 721.556 456.772Z" fill="white"/>
<path d="M717.952 456.831H714.425C714.253 456.831 714.114 456.989 714.114 457.183C714.114 457.377 714.253 457.535 714.425 457.535H717.952C718.124 457.535 718.264 457.377 718.264 457.183C718.264 456.989 718.124 456.831 717.952 456.831Z" fill="white"/>
<path d="M714.958 455.184H714.391C714.219 455.184 714.079 455.342 714.079 455.536C714.079 455.73 714.219 455.888 714.391 455.888H714.958C715.13 455.888 715.27 455.73 715.27 455.536C715.27 455.342 715.13 455.184 714.958 455.184Z" fill="white"/>
<path d="M721.448 455.184H720.88C720.708 455.184 720.569 455.342 720.569 455.536C720.569 455.73 720.708 455.888 720.88 455.888H721.448C721.62 455.888 721.759 455.73 721.759 455.536C721.759 455.342 721.62 455.184 721.448 455.184Z" fill="white"/>
<path d="M723.287 455.184H722.719C722.547 455.184 722.408 455.342 722.408 455.536C722.408 455.73 722.547 455.888 722.719 455.888H723.287C723.459 455.888 723.598 455.73 723.598 455.536C723.598 455.342 723.459 455.184 723.287 455.184Z" fill="white"/>
<path d="M719.683 455.243H716.156C715.984 455.243 715.845 455.4 715.845 455.595C715.845 455.789 715.984 455.946 716.156 455.946H719.683C719.855 455.946 719.994 455.789 719.994 455.595C719.994 455.4 719.855 455.243 719.683 455.243Z" fill="white"/>
<path d="M706.75 478.566L704.086 473.809L712.447 466.279L715.898 461.96C716.347 461.399 716.917 460.98 717.554 460.746C718.19 460.513 718.87 460.472 719.524 460.627C720.179 460.783 720.786 461.13 721.285 461.634C721.784 462.138 722.157 462.781 722.367 463.499C722.678 464.563 722.611 465.721 722.18 466.73C721.75 467.739 720.989 468.52 720.058 468.907L714.601 471.178L706.75 478.566Z" fill="#FFB6B6"/>
<path d="M644.249 444.076V467.195H658.586V444.076C658.586 443.91 658.539 443.748 658.452 443.614C658.365 443.48 658.242 443.381 658.101 443.332C658.035 443.307 657.965 443.295 657.896 443.296H644.942C644.851 443.296 644.761 443.316 644.677 443.355C644.593 443.394 644.517 443.451 644.452 443.524C644.388 443.596 644.337 443.682 644.302 443.777C644.267 443.872 644.249 443.973 644.249 444.076V444.076ZM649.844 452.02C649.848 451.564 650.011 451.128 650.298 450.808C650.584 450.487 650.971 450.307 651.375 450.307C651.778 450.307 652.165 450.487 652.452 450.808C652.739 451.128 652.901 451.564 652.905 452.02V454.702C652.903 455.159 652.741 455.597 652.454 455.919C652.167 456.242 651.779 456.423 651.375 456.423C650.97 456.423 650.582 456.242 650.295 455.919C650.009 455.597 649.846 455.159 649.844 454.702V452.02Z" fill="#2F2E41"/>
<path d="M644.205 466.456V468.685C644.206 468.801 644.246 468.912 644.318 468.993C644.391 469.075 644.488 469.122 644.591 469.123H658.245C658.347 469.122 658.445 469.076 658.517 468.994C658.589 468.912 658.63 468.801 658.63 468.685V466.456H644.205Z" fill="#3F3D56"/>
<path d="M621.696 409.244V451.456C621.696 451.994 621.885 452.51 622.222 452.89C622.559 453.271 623.015 453.485 623.491 453.485H678.863C679.339 453.485 679.796 453.271 680.132 452.89C680.469 452.51 680.659 451.994 680.659 451.456V409.244C680.658 408.706 680.468 408.191 680.132 407.811C679.795 407.431 679.339 407.218 678.863 407.217H623.491C623.016 407.218 622.56 407.431 622.223 407.811C621.886 408.191 621.697 408.706 621.696 409.244Z" fill="#3F3D56"/>
<path d="M622.995 409.769V450.936C622.995 451.223 623.096 451.498 623.276 451.702C623.456 451.905 623.7 452.019 623.954 452.02H678.402C678.657 452.019 678.9 451.905 679.08 451.702C679.26 451.498 679.361 451.223 679.362 450.936V409.769C679.362 409.481 679.261 409.205 679.081 409.001C678.901 408.798 678.657 408.683 678.402 408.682H623.954C623.7 408.683 623.456 408.798 623.276 409.001C623.096 409.205 622.995 409.481 622.995 409.769Z" fill="white"/>
<path d="M633.099 468.972C633.155 469.05 633.225 469.113 633.305 469.157C633.385 469.2 633.473 469.222 633.562 469.222H665.955C666.044 469.222 666.131 469.199 666.211 469.156C666.291 469.113 666.361 469.05 666.417 468.973C666.473 468.895 666.513 468.804 666.534 468.707C666.554 468.61 666.556 468.508 666.538 468.41L666.035 465.712C666.014 465.602 665.969 465.5 665.904 465.414C665.839 465.329 665.757 465.263 665.664 465.223C665.596 465.193 665.525 465.178 665.452 465.178H634.063C633.991 465.178 633.919 465.193 633.851 465.223C633.758 465.263 633.676 465.329 633.611 465.414C633.546 465.5 633.501 465.602 633.48 465.712L632.977 468.41C632.96 468.508 632.961 468.609 632.982 468.706C633.003 468.804 633.043 468.894 633.099 468.972Z" fill="#2F2E41"/>
<path d="M676.635 414.353H625.689C625.636 414.352 625.585 414.327 625.548 414.284C625.511 414.242 625.49 414.184 625.49 414.124C625.49 414.064 625.511 414.007 625.548 413.964C625.585 413.921 625.636 413.897 625.689 413.895H676.635C676.688 413.897 676.738 413.921 676.776 413.964C676.813 414.007 676.833 414.064 676.833 414.124C676.833 414.184 676.813 414.242 676.776 414.284C676.738 414.327 676.688 414.352 676.635 414.353V414.353Z" fill="#3F3D56"/>
<path d="M629.157 412.727C629.812 412.727 630.344 412.113 630.344 411.356C630.344 410.598 629.812 409.984 629.157 409.984C628.501 409.984 627.969 410.598 627.969 411.356C627.969 412.113 628.501 412.727 629.157 412.727Z" fill="#3F3D56"/>
<path d="M633.258 412.727C633.914 412.727 634.446 412.113 634.446 411.356C634.446 410.598 633.914 409.984 633.258 409.984C632.603 409.984 632.071 410.598 632.071 411.356C632.071 412.113 632.603 412.727 633.258 412.727Z" fill="#3F3D56"/>
<path d="M637.36 412.727C638.016 412.727 638.547 412.113 638.547 411.356C638.547 410.598 638.016 409.984 637.36 409.984C636.704 409.984 636.173 410.598 636.173 411.356C636.173 412.113 636.704 412.727 637.36 412.727Z" fill="#3F3D56"/>
<path d="M674.165 410.323H671.252C671.194 410.325 671.14 410.352 671.099 410.398C671.059 410.445 671.037 410.507 671.037 410.572C671.037 410.638 671.059 410.7 671.099 410.747C671.14 410.793 671.194 410.82 671.252 410.822H674.165C674.223 410.821 674.278 410.794 674.319 410.747C674.36 410.701 674.383 410.638 674.383 410.572C674.383 410.507 674.36 410.444 674.319 410.398C674.278 410.351 674.223 410.324 674.165 410.323Z" fill="#3F3D56"/>
<path d="M674.165 411.259H671.252C671.194 411.26 671.14 411.287 671.099 411.334C671.059 411.38 671.036 411.443 671.036 411.508C671.036 411.573 671.059 411.636 671.099 411.682C671.14 411.729 671.194 411.756 671.252 411.757H674.165C674.223 411.756 674.279 411.73 674.319 411.683C674.36 411.636 674.383 411.573 674.383 411.508C674.383 411.442 674.36 411.379 674.319 411.333C674.279 411.286 674.223 411.26 674.165 411.259V411.259Z" fill="#3F3D56"/>
<path d="M674.165 412.194H671.252C671.194 412.196 671.14 412.223 671.099 412.269C671.059 412.316 671.037 412.378 671.037 412.443C671.037 412.509 671.059 412.571 671.099 412.618C671.14 412.664 671.194 412.691 671.252 412.693H674.165C674.223 412.692 674.278 412.665 674.319 412.618C674.36 412.572 674.383 412.509 674.383 412.443C674.383 412.378 674.36 412.315 674.319 412.269C674.278 412.222 674.223 412.195 674.165 412.194V412.194Z" fill="#3F3D56"/>
<path d="M744.398 467.434C744.486 467.723 744.653 467.974 744.875 468.149C745.096 468.325 745.361 468.416 745.632 468.411L750.918 468.257C751.191 468.251 751.454 468.145 751.669 467.956C751.884 467.767 752.04 467.504 752.112 467.207L752.86 458.171C753.125 458.306 753.414 458.373 753.705 458.367C753.958 458.36 754.208 458.296 754.439 458.18C754.67 458.064 754.879 457.898 755.054 457.691C755.228 457.483 755.365 457.239 755.456 456.972C755.547 456.705 755.59 456.421 755.584 456.135C755.578 455.849 755.522 455.567 755.419 455.306C755.316 455.045 755.169 454.809 754.985 454.612C754.802 454.414 754.586 454.26 754.35 454.157C754.113 454.055 753.862 454.005 753.608 454.012C753.492 454.012 753.376 454.026 753.262 454.053C753.138 453.902 752.988 453.781 752.82 453.7C752.653 453.618 752.472 453.577 752.289 453.579L744.158 453.816C744.091 453.819 744.024 453.829 743.958 453.844C743.779 453.882 743.61 453.962 743.462 454.08C743.313 454.197 743.189 454.35 743.096 454.526C743.004 454.703 742.947 454.899 742.928 455.103C742.908 455.307 742.928 455.513 742.985 455.707L744.398 467.434ZM753.013 457.557L753.545 455.404C753.606 455.155 753.607 454.892 753.549 454.643C753.575 454.643 753.598 454.629 753.624 454.629C753.989 454.62 754.342 454.776 754.606 455.061C754.869 455.346 755.022 455.738 755.031 456.15C755.039 456.562 754.903 456.962 754.651 457.26C754.4 457.559 754.053 457.733 753.688 457.744C753.452 457.752 753.219 457.687 753.013 457.557Z" fill="#2F2E41"/>
<path d="M743.958 453.844C744.131 454.963 746.079 455.75 748.42 455.613C750.574 455.501 752.335 454.647 752.657 453.635C752.538 453.595 752.414 453.576 752.289 453.579L744.158 453.816C744.091 453.819 744.024 453.829 743.958 453.844V453.844Z" fill="#3F3D56"/>
<path d="M748.85 462.469C748.86 462.466 748.871 462.461 748.88 462.454L750.028 461.605C750.042 461.595 750.053 461.581 750.061 461.564C750.069 461.548 750.073 461.529 750.073 461.511C750.073 461.492 750.069 461.473 750.061 461.457C750.053 461.441 750.042 461.427 750.028 461.416L748.835 460.533C748.824 460.525 748.811 460.52 748.799 460.517C748.786 460.514 748.772 460.514 748.76 460.517C748.747 460.52 748.734 460.526 748.724 460.534C748.713 460.543 748.703 460.553 748.696 460.566C748.689 460.578 748.684 460.592 748.682 460.606C748.679 460.621 748.679 460.636 748.682 460.651C748.685 460.665 748.69 460.679 748.697 460.691C748.705 460.703 748.714 460.714 748.725 460.722L749.791 461.51L748.771 462.265C748.751 462.28 748.736 462.302 748.73 462.327C748.723 462.353 748.724 462.38 748.734 462.405C748.743 462.429 748.76 462.449 748.781 462.461C748.803 462.472 748.827 462.475 748.85 462.469H748.85Z" fill="#6C63FF"/>
<path d="M747.037 462.563C747.056 462.558 747.073 462.546 747.086 462.529C747.1 462.512 747.108 462.491 747.111 462.469C747.114 462.447 747.11 462.424 747.102 462.404C747.093 462.384 747.079 462.367 747.062 462.356L746.004 461.671L747.026 460.812C747.037 460.804 747.046 460.793 747.052 460.78C747.059 460.767 747.064 460.753 747.065 460.739C747.067 460.724 747.067 460.709 747.064 460.695C747.06 460.68 747.055 460.667 747.047 460.655C747.039 460.643 747.029 460.633 747.018 460.625C747.007 460.618 746.994 460.613 746.981 460.611C746.968 460.608 746.955 460.609 746.943 460.613C746.93 460.616 746.918 460.623 746.907 460.632L745.762 461.593C745.749 461.604 745.738 461.618 745.731 461.635C745.724 461.652 745.721 461.671 745.722 461.69C745.723 461.708 745.728 461.726 745.737 461.742C745.746 461.758 745.758 461.771 745.772 461.781L746.962 462.552C746.985 462.566 747.011 462.57 747.037 462.563V462.563Z" fill="#6C63FF"/>
<path d="M748.736 463.213C748.745 463.21 748.754 463.205 748.763 463.2C748.774 463.192 748.784 463.182 748.792 463.17C748.799 463.158 748.805 463.144 748.808 463.13C748.811 463.115 748.812 463.101 748.81 463.086C748.808 463.071 748.803 463.057 748.796 463.045L747.169 460.022C747.155 459.997 747.133 459.978 747.107 459.971C747.082 459.964 747.054 459.969 747.032 459.985C747.009 460 746.993 460.025 746.987 460.054C746.981 460.083 746.985 460.114 746.998 460.139L748.626 463.162C748.637 463.183 748.654 463.199 748.673 463.208C748.693 463.217 748.715 463.218 748.736 463.213Z" fill="#6C63FF"/>
<path d="M657.249 426.796H648.431C648.072 426.796 647.78 427.126 647.78 427.532V428.505C647.78 428.912 648.072 429.241 648.431 429.241H657.249C657.609 429.241 657.9 428.912 657.9 428.505V427.532C657.9 427.126 657.609 426.796 657.249 426.796Z" fill="#6C63FF"/>
<path d="M662.389 431.686H643.292C642.932 431.686 642.64 432.016 642.64 432.422V433.395C642.64 433.802 642.932 434.131 643.292 434.131H662.389C662.749 434.131 663.04 433.802 663.04 433.395V432.422C663.04 432.016 662.749 431.686 662.389 431.686Z" fill="#E6E6E6"/>
<path d="M662.389 436.576H643.292C642.932 436.576 642.64 436.905 642.64 437.312V438.285C642.64 438.691 642.932 439.021 643.292 439.021H662.389C662.749 439.021 663.04 438.691 663.04 438.285V437.312C663.04 436.905 662.749 436.576 662.389 436.576Z" fill="#E6E6E6"/>
<path d="M664.008 452.95L664.051 453.104L664.053 453.109L665.355 457.581L666.853 462.734L669.671 472.419L669.698 473.923V473.928L669.908 486.03L669.327 487.671L669.981 490.361C669.981 490.361 669.68 486.295 668.069 488.63C667.156 489.957 666.088 491.314 665.212 492.587C666.489 493.171 667.786 493.699 669.104 494.171C669.389 494.274 669.676 494.372 669.962 494.47C670.024 494.49 670.085 494.511 670.147 494.531C674.516 495.991 679.032 496.811 683.586 496.972C683.823 496.979 684.055 496.985 684.28 496.99C684.36 496.992 684.437 496.995 684.515 496.995C684.769 496.997 685.022 497 685.277 497C685.792 497 686.304 496.991 686.814 496.974C690.587 496.854 694.339 496.281 698.006 495.264C697.981 493.554 697.913 491.556 697.815 489.422C697.769 488.375 696.747 487.241 696.686 486.145C696.642 485.323 697.56 484.549 697.512 483.713C697.202 478.567 696.815 480.542 696.529 476.899C696.499 476.541 696.472 476.199 696.447 475.872C696.262 473.532 696.135 472.069 696.135 472.069L697.359 463.349L699.283 449.658L699.135 449.383L698.969 449.29L688.823 443.618L688.273 442.023C688.112 441.564 687.834 441.169 687.473 440.89C687.112 440.611 686.686 440.46 686.249 440.457L679.566 440.426C679.219 440.424 678.877 440.516 678.568 440.694C678.259 440.871 677.991 441.13 677.788 441.447L675.979 444.278L664.008 452.95Z" fill="#3F3D56"/>
<path d="M671.212 470.264L669.698 473.923L668.665 476.423L666.887 486.938L665.997 488.005L665.235 484.227L657.254 486.229C656.992 484.586 657.184 486.285 657.022 484.482C657.067 484.431 657.115 484.379 657.163 484.328C657.291 484.194 657.397 484.068 657.395 483.947C657.304 477.729 657.577 467.147 659.858 460.736C660.215 459.69 660.686 458.697 661.26 457.782C661.306 457.712 661.349 457.643 661.392 457.573C662.444 455.91 663.109 454.271 664.051 453.107V453.104C664.057 453.099 664.062 453.093 664.067 453.086C664.07 453.084 664.073 453.081 664.076 453.078L670.55 449.2L670.827 458.016L671.025 464.352L671.212 470.264Z" fill="#3F3D56"/>
<path d="M694.555 471.303L696.446 475.874L697.106 477.465L698.883 487.98L699.77 489.044L700.534 485.267L700.894 485.184L707.37 483.668L709.258 490.442C709.683 489.641 709.851 488.698 709.732 487.774C709.614 486.85 709.216 486 708.607 485.368C708.478 485.237 708.371 485.108 708.374 484.987C708.481 477.673 708.085 464.319 704.509 458.823C703.374 457.079 702.692 455.341 701.701 454.128C701.698 454.124 701.698 454.121 701.695 454.121L699.282 449.658L699.135 449.384L698.969 449.29L694.555 471.303Z" fill="#3F3D56"/>
<path d="M683.101 438.278C688.011 438.278 691.992 433.781 691.992 428.233C691.992 422.686 688.011 418.189 683.101 418.189C678.19 418.189 674.21 422.686 674.21 428.233C674.21 433.781 678.19 438.278 683.101 438.278Z" fill="#FFB6B6"/>
<path d="M695.118 421.217C695.049 421.134 694.966 421.067 694.874 421.021C694.781 420.975 694.682 420.951 694.581 420.949L694.715 420.53C694.758 420.398 694.77 420.255 694.749 420.116C694.728 419.977 694.674 419.847 694.594 419.739C694.513 419.631 694.409 419.55 694.291 419.502C694.174 419.455 694.047 419.444 693.925 419.47L693.438 419.576L693.484 419.209C693.501 419.072 693.487 418.932 693.442 418.803C693.398 418.675 693.324 418.561 693.229 418.474C693.134 418.387 693.02 418.33 692.899 418.308C692.778 418.286 692.655 418.299 692.54 418.347C692.435 418.394 692.323 418.413 692.211 418.404C692.099 418.395 691.991 418.358 691.893 418.296C691.795 418.235 691.71 418.151 691.644 418.049C691.578 417.948 691.532 417.831 691.51 417.707L691.341 416.783L691.323 416.733C690.497 415.178 688.908 414.046 686.965 413.632C685.235 413.26 683.461 413.449 681.751 413.627C681.072 413.699 680.306 413.78 679.668 414.222C679.125 414.601 678.666 415.358 678.76 416.123C677.074 415.539 675.266 416.704 674.37 418.174C673.308 419.923 673.135 422.114 673.107 423.828C673.031 427.881 673.771 431.197 675.302 433.685C675.414 433.866 675.441 434.242 675.663 434.368L675.617 434.285C675.864 434.425 676.116 434.65 676.022 434.891C675.753 435.586 677.543 437.121 678.804 437.628C681.104 438.554 684.163 438.475 686.314 438.142L686.39 437.567C687.166 437.448 687.713 437.22 687.867 436.864C688.138 436.602 688.369 436.368 688.571 436.151L688.573 436.149C688.577 436.145 688.585 436.138 688.589 436.133C689.561 435.081 689.786 434.481 689.888 433.568C689.986 432.673 689.812 431.765 689.635 430.946C693.374 431.6 688.162 426.447 691.646 425.451C691.686 425.437 691.726 425.425 691.768 425.417C691.869 425.39 691.971 425.363 692.069 425.331C692.54 425.187 692.991 424.969 693.41 424.684C694.384 424.015 694.705 423.126 695.208 422.126C695.28 421.983 695.311 421.818 695.294 421.655C695.278 421.491 695.216 421.338 695.118 421.217V421.217Z" fill="#2F2E41"/>
<path d="M714.547 472.018C714.545 472.413 714.541 472.965 714.525 473.648C714.523 473.743 714.521 473.84 714.519 473.939C714.493 475.195 714.467 476.247 714.425 477.417C714.423 477.498 714.421 477.577 714.417 477.658C714.361 479.291 714.273 481.191 714.122 484.2C713.84 489.759 713.35 484.964 712.857 486.914C712.833 487.011 712.807 487.126 712.783 487.262C712.708 487.752 712.582 488.231 712.408 488.688C712.146 488.864 711.877 489.033 711.612 489.202C710.855 489.678 710.087 490.136 709.313 490.571C708.878 490.814 708.441 491.053 708.002 491.283C707.932 491.319 707.864 491.355 707.796 491.389C705.548 492.564 703.232 493.562 700.863 494.378C700.4 494.536 699.939 494.689 699.472 494.831C698.985 494.985 698.498 495.129 698.005 495.264C694.339 496.281 690.587 496.854 686.813 496.975C686.304 496.993 685.791 497 685.277 497C685.021 497 684.77 496.998 684.514 496.995C684.437 496.995 684.359 496.993 684.281 496.991C684.055 496.984 683.822 496.98 683.587 496.973C679.033 496.812 674.516 495.992 670.148 494.531L669.962 494.471C669.675 494.371 669.389 494.274 669.104 494.171C667.787 493.7 666.49 493.172 665.211 492.588C664.235 492.144 663.271 491.668 662.318 491.159C662.309 491.156 662.301 491.152 662.294 491.146C662.094 491.042 661.893 490.934 661.693 490.823C661.667 490.807 661.639 490.792 661.612 490.776C660.867 490.366 660.131 489.936 659.403 489.486C658.79 487.897 657.928 487.593 657.393 486.195C657.238 485.78 657.125 485.346 657.058 484.901C657.058 484.897 657.056 484.892 657.056 484.886C657.112 485.724 656.819 483.398 657.054 484.877C657.052 484.849 657.05 484.82 657.048 484.786C657.042 484.705 657.034 484.606 657.022 484.482C656.338 476.933 656.382 468.299 656.084 461.185C656.064 460.725 656.044 460.284 656.022 459.864C656.017 459.724 656.009 459.586 656.001 459.451C656.015 459.411 656.03 459.368 656.048 459.327C656.052 459.315 656.057 459.304 656.062 459.293C656.068 459.279 656.075 459.266 656.082 459.253C656.086 459.246 656.092 459.237 656.096 459.23C656.099 459.222 656.103 459.215 656.106 459.208C656.124 459.176 656.144 459.142 656.166 459.111C656.176 459.097 656.184 459.086 656.194 459.075C656.201 459.063 656.209 459.053 656.218 459.043C656.224 459.032 656.232 459.022 656.24 459.014C656.248 459.005 656.256 458.993 656.266 458.982C656.27 458.975 656.276 458.969 656.282 458.964C656.298 458.944 656.315 458.925 656.334 458.908C656.405 458.834 656.481 458.766 656.561 458.705C656.589 458.685 656.619 458.664 656.647 458.642C656.848 458.506 657.06 458.391 657.28 458.299C657.355 458.268 657.431 458.238 657.513 458.207C657.543 458.198 657.571 458.186 657.601 458.175C657.645 458.159 657.689 458.144 657.735 458.132C657.962 458.056 658.207 457.99 658.473 457.929C658.505 457.923 658.539 457.916 658.573 457.907C658.62 457.896 658.67 457.887 658.72 457.878C658.788 457.864 658.858 457.851 658.928 457.837C659.52 457.731 660.193 457.652 660.935 457.6C661.005 457.596 661.075 457.591 661.145 457.587C661.226 457.582 661.308 457.578 661.392 457.573C661.462 457.569 661.534 457.567 661.606 457.564C661.675 457.56 661.747 457.558 661.821 457.555C662.023 457.549 662.23 457.542 662.442 457.537C663.044 457.524 663.679 457.528 664.345 457.544C664.654 457.553 664.97 457.562 665.293 457.578C665.315 457.578 665.335 457.58 665.355 457.58C665.636 457.591 665.92 457.605 666.211 457.623C666.414 457.634 666.62 457.645 666.825 457.659C667.019 457.673 667.215 457.686 667.412 457.702C667.566 457.711 667.719 457.724 667.875 457.736C668.007 457.747 668.138 457.758 668.27 457.767L668.45 457.781C668.547 457.79 668.645 457.796 668.745 457.808C668.964 457.828 669.184 457.848 669.407 457.869C669.629 457.891 669.854 457.914 670.08 457.936C670.305 457.959 670.533 457.984 670.76 458.008C670.784 458.011 670.806 458.013 670.828 458.015C671.036 458.04 671.243 458.062 671.453 458.087C671.501 458.092 671.55 458.096 671.598 458.103C671.798 458.126 672.002 458.152 672.203 458.176C672.265 458.184 672.327 458.191 672.389 458.199C672.547 458.218 672.702 458.235 672.861 458.256C673.071 458.283 673.284 458.308 673.492 458.34C673.654 458.36 673.815 458.38 673.977 458.403C674.23 458.437 674.488 458.473 674.745 458.511C674.843 458.525 674.941 458.538 675.038 458.554C675.773 458.658 676.515 458.773 677.269 458.892C678.413 459.075 679.574 459.273 680.743 459.487C681.914 459.701 683.092 459.927 684.277 460.166C684.576 460.227 684.876 460.287 685.177 460.351C685.313 460.38 685.448 460.409 685.584 460.438C685.815 460.486 686.047 460.535 686.278 460.585C686.51 460.635 686.741 460.684 686.973 460.736C687.248 460.797 687.525 460.858 687.801 460.919C689.615 461.324 691.418 461.757 693.178 462.21C693.468 462.285 693.757 462.361 694.044 462.436C694.619 462.587 695.188 462.74 695.752 462.896C695.908 462.936 696.062 462.979 696.215 463.022C696.598 463.13 696.981 463.238 697.359 463.349L697.424 463.369C697.702 463.446 697.973 463.524 698.245 463.606C698.885 463.795 699.515 463.987 700.134 464.18C700.545 464.309 700.952 464.439 701.353 464.57C701.954 464.767 702.543 464.965 703.115 465.166C703.257 465.215 703.399 465.265 703.538 465.312C703.957 465.459 704.37 465.607 704.771 465.756C705.091 465.873 705.402 465.993 705.709 466.112C706.017 466.232 706.318 466.351 706.613 466.471C706.803 466.547 706.99 466.629 707.178 466.705C707.447 466.818 707.713 466.931 707.972 467.043C708.052 467.077 708.13 467.113 708.207 467.147C708.257 467.172 708.305 467.192 708.353 467.215C708.447 467.257 708.543 467.298 708.634 467.341C708.728 467.381 708.82 467.424 708.912 467.469C709.002 467.51 709.093 467.553 709.181 467.596C709.271 467.636 709.359 467.679 709.447 467.724C709.52 467.758 709.592 467.794 709.662 467.83C709.804 467.9 709.945 467.97 710.083 468.042C710.151 468.078 710.219 468.112 710.287 468.148L710.442 468.229C710.464 468.243 710.486 468.254 710.508 468.265C710.558 468.292 710.61 468.321 710.66 468.349C710.775 468.409 710.889 468.475 711.001 468.536C711.151 468.621 711.296 468.707 711.436 468.79C711.578 468.876 711.715 468.962 711.847 469.045C711.869 469.059 711.889 469.072 711.911 469.086C711.941 469.104 711.971 469.124 712.001 469.142C712.102 469.207 712.2 469.275 712.298 469.34C712.49 469.473 712.671 469.604 712.841 469.735C712.879 469.764 712.915 469.793 712.952 469.821C713.078 469.922 713.198 470.021 713.31 470.123C713.31 470.125 713.31 470.125 713.312 470.125C713.35 470.156 713.385 470.19 713.421 470.222C713.451 470.253 713.483 470.28 713.513 470.312C713.617 470.413 713.713 470.51 713.8 470.609C713.83 470.64 713.858 470.672 713.884 470.706C713.896 470.717 713.907 470.729 713.916 470.743C713.956 470.788 713.992 470.833 714.026 470.878C714.031 470.884 714.036 470.891 714.04 470.898C714.088 470.961 714.132 471.024 714.174 471.087C714.194 471.119 714.216 471.151 714.233 471.182C714.257 471.22 714.281 471.261 714.301 471.299C714.319 471.331 714.335 471.365 714.351 471.396C714.394 471.477 714.43 471.563 714.459 471.651C714.481 471.711 714.499 471.773 714.513 471.836C714.528 471.896 714.539 471.957 714.547 472.018V472.018Z" fill="#2F2E41"/>
<path opacity="0.2" d="M714.547 472.018C714.545 472.413 714.541 472.965 714.525 473.648C714.523 473.743 714.519 473.84 714.517 473.939C714.497 474.897 714.467 476.081 714.425 477.417C714.423 477.498 714.421 477.577 714.417 477.659C714.361 479.291 714.273 481.191 714.122 484.2C713.84 489.759 713.35 484.964 712.857 486.914C711.488 485.963 709.987 484.967 708.383 483.943C708.094 483.758 707.802 483.573 707.507 483.387C704.299 481.364 700.715 479.245 696.974 477.147C696.826 477.063 696.676 476.98 696.529 476.899C687.958 472.113 678.604 467.458 671.026 464.352C669.563 463.752 668.166 463.211 666.853 462.736C664.088 461.737 661.697 461.038 659.858 460.736C657.942 460.42 656.619 460.533 656.084 461.185C656.064 460.725 656.044 460.284 656.022 459.864C656.014 459.724 656.007 459.586 655.999 459.451C656.011 459.414 656.027 459.379 656.042 459.343C656.045 459.338 656.046 459.332 656.048 459.327C656.052 459.315 656.057 459.304 656.062 459.293C656.068 459.279 656.075 459.266 656.082 459.253C656.089 459.237 656.097 459.222 656.106 459.208C656.124 459.176 656.144 459.142 656.166 459.111C656.182 459.087 656.2 459.064 656.218 459.043C656.224 459.032 656.232 459.022 656.24 459.014C656.248 459.005 656.256 458.993 656.266 458.982C656.27 458.975 656.276 458.969 656.282 458.964C656.298 458.944 656.315 458.925 656.334 458.908C656.405 458.834 656.481 458.766 656.561 458.705C656.589 458.685 656.619 458.664 656.647 458.642C656.848 458.506 657.06 458.391 657.28 458.299C657.355 458.268 657.431 458.238 657.513 458.207C657.543 458.198 657.571 458.186 657.601 458.175C657.645 458.159 657.689 458.144 657.735 458.132C657.962 458.056 658.207 457.99 658.473 457.929C658.553 457.911 658.636 457.893 658.72 457.878C658.788 457.864 658.858 457.851 658.928 457.837C659.52 457.731 660.193 457.652 660.935 457.6C661.005 457.596 661.075 457.591 661.145 457.587C661.226 457.582 661.308 457.578 661.392 457.573C661.462 457.569 661.534 457.567 661.606 457.564C661.675 457.56 661.747 457.558 661.821 457.555C662.023 457.549 662.23 457.542 662.442 457.537C663.044 457.526 663.679 457.53 664.345 457.546C664.654 457.553 664.97 457.564 665.293 457.58C665.313 457.58 665.335 457.582 665.355 457.582C665.636 457.591 665.922 457.607 666.211 457.623C666.414 457.634 666.62 457.645 666.825 457.659C667.019 457.673 667.215 457.686 667.412 457.702C667.566 457.711 667.719 457.724 667.875 457.736C668.007 457.747 668.138 457.758 668.27 457.767C668.428 457.781 668.585 457.794 668.745 457.808C668.964 457.828 669.184 457.848 669.407 457.869C669.629 457.891 669.854 457.914 670.08 457.936C670.305 457.959 670.533 457.984 670.76 458.008C670.784 458.011 670.806 458.013 670.828 458.015C671.036 458.04 671.243 458.062 671.453 458.087C672.614 458.22 673.809 458.376 675.038 458.554C675.773 458.66 676.516 458.773 677.269 458.894C678.413 459.077 679.574 459.275 680.743 459.487C681.914 459.701 683.092 459.927 684.277 460.166C684.576 460.227 684.876 460.287 685.177 460.351C685.544 460.427 685.911 460.505 686.278 460.585C686.51 460.635 686.741 460.684 686.973 460.736C687.248 460.797 687.525 460.858 687.801 460.919C689.615 461.324 691.418 461.757 693.178 462.21C693.468 462.285 693.757 462.361 694.044 462.436C694.619 462.587 695.188 462.74 695.752 462.896C695.908 462.938 696.062 462.981 696.215 463.024C696.6 463.132 696.982 463.24 697.359 463.349V463.351C697.381 463.355 697.403 463.362 697.424 463.369C697.7 463.448 697.973 463.527 698.245 463.608C698.885 463.797 699.515 463.988 700.134 464.18C700.545 464.311 700.952 464.44 701.353 464.57C701.954 464.769 702.543 464.967 703.115 465.166C703.257 465.215 703.399 465.265 703.538 465.312C703.957 465.461 704.368 465.609 704.771 465.756C705.091 465.873 705.402 465.993 705.709 466.112C706.017 466.232 706.318 466.351 706.613 466.471C706.805 466.547 706.992 466.626 707.178 466.703C707.449 466.816 707.713 466.928 707.972 467.043C708.052 467.077 708.13 467.113 708.207 467.147C708.353 467.21 708.495 467.276 708.634 467.341C708.728 467.381 708.82 467.424 708.912 467.469C709.002 467.51 709.093 467.553 709.181 467.596C709.271 467.636 709.359 467.679 709.447 467.724C709.52 467.758 709.592 467.794 709.662 467.83C709.804 467.9 709.945 467.97 710.083 468.042C710.151 468.078 710.219 468.112 710.287 468.148L710.442 468.229C710.464 468.243 710.486 468.254 710.508 468.265C710.678 468.355 710.841 468.445 711.001 468.536C711.151 468.621 711.296 468.707 711.436 468.79C711.602 468.89 711.759 468.986 711.911 469.086C711.941 469.104 711.971 469.124 712.001 469.142C712.102 469.207 712.2 469.275 712.298 469.34C712.49 469.473 712.671 469.604 712.841 469.735C713.008 469.866 713.164 469.994 713.31 470.123C713.31 470.125 713.31 470.125 713.312 470.125C713.381 470.188 713.449 470.251 713.513 470.312C713.617 470.413 713.713 470.51 713.801 470.61C713.83 470.64 713.858 470.672 713.884 470.706C713.896 470.717 713.907 470.729 713.916 470.743C713.958 470.794 714 470.846 714.04 470.898C714.088 470.961 714.132 471.024 714.174 471.087C714.194 471.119 714.216 471.151 714.234 471.182C714.257 471.22 714.281 471.261 714.301 471.299C714.319 471.331 714.335 471.365 714.351 471.396C714.394 471.477 714.43 471.563 714.459 471.651C714.481 471.711 714.499 471.773 714.513 471.836C714.528 471.896 714.539 471.957 714.547 472.018V472.018Z" fill="black"/>
<line y1="-0.5" x2="37.8732" y2="-0.5" transform="matrix(-0.0105371 0.999945 -0.99991 -0.0134479 611.986 472.371)" stroke="black"/>
<line x1="606.5" y1="467.411" x2="606.5" y2="494.237" stroke="black"/>
<line x1="757.949" y1="473.498" x2="757.949" y2="496.942" stroke="black"/>
<line x1="659.178" y1="488.376" x2="659.178" y2="504.381" stroke="black"/>
<line x1="684.918" y1="496.942" x2="684.918" y2="509.115" stroke="black"/>
<line y1="-0.5" x2="23.4448" y2="-0.5" transform="matrix(-0.00851101 0.999964 -0.999941 -0.010862 709.759 489.728)" stroke="black"/>
<line x1="678.533" y1="496.942" x2="678.533" y2="514.525" stroke="black"/>
<line y1="-0.5" x2="19.412" y2="-0.5" transform="matrix(0.0513946 0.998678 -0.99785 0.0655415 678.432 496.942)" stroke="black"/>
</g>
</g>
<defs>
<linearGradient id="paint0_linear_1_2" x1="497.975" y1="0" x2="497.975" y2="503" gradientUnits="userSpaceOnUse">
<stop stop-color="#2116EF"/>
<stop offset="0.911458" stop-color="#A511A8" stop-opacity="0"/>
</linearGradient>
<clipPath id="clip0_1_2">
<rect width="1013.95" height="503" fill="white"/>
</clipPath>
<clipPath id="clip1_1_2">
<rect width="157" height="129" fill="white" transform="translate(606 368)"/>
</clipPath>
</defs>
</svg>
